<svg xmlns="http://www.w3.org/2000/svg" width="16" height="16" viewBox="0 0 16 16"><g><g><path fill="#9da1a9" d="M13.884.257l1.86 1.859a.877.877 0 0 1 0 1.239l-1.711 1.71a.22.22 0 0 1-.31 0l-2.789-2.788a.22.22 0 0 1 0-.31l1.711-1.71a.874.874 0 0 1 1.24 0zm-3.57 2.64l2.79 2.788a.219.219 0 0 1 0 .31l-7.76 7.758a.218.218 0 0 1-.309 0l-2.788-2.788a.22.22 0 0 1 0-.31l7.758-7.758a.219.219 0 0 1 .31 0zm-8.68 8.693l2.776 2.777c.085.085.061.186-.053.223L.15 15.99A.201.201 0 0 1 .088 16c-.074 0-.107-.058-.077-.15l1.399-4.206c.022-.069.067-.105.117-.105.035 0 .072.017.106.051z"/></g></g></svg>