<svg xmlns="http://www.w3.org/2000/svg" width="18" height="21" viewBox="0 0 18 21"><g><g><path fill="#9399a2" d="M7.64 2.61c2.766 0 4.914 2.119 4.914 4.734 0 2.614-2.148 4.734-4.914 4.734-2.767 0-4.972-2.12-4.972-4.734 0-2.615 2.205-4.735 4.972-4.735zm5.803 9.462a7.298 7.298 0 0 0 1.755-4.776c0-4.026-3.284-7.29-7.544-7.29S-.002 3.27-.002 7.295c0 4.027 3.395 7.41 7.656 7.41a7.707 7.707 0 0 0 2.959-.583l.122-.094 4.618 6.723a.85.85 0 0 0 1.198 0l1.199-1.193a.84.84 0 0 0 0-1.193l-4.417-6.21z"/></g></g></svg>