<svg xmlns="http://www.w3.org/2000/svg" width="22" height="21" viewBox="0 0 22 21"><g><g><path fill="#f3b40c" d="M13 3l1 4 6 1-5 5 2 6-6-2-6 3 1-7-4-5 6-1 3-6z"/></g><g><path fill="#f3b40c" d="M12.69 7.682c.19.533.692.896 1.262.91l3.585.09.896.09s.348.019.478.035l-3.914 2.979a1.36 1.36 0 0 0-.481 1.473s.91 3.499 1.282 4.72l-4.02-2.746a1.377 1.377 0 0 0-1.557 0l-4.047 2.766c.333-1.057 1.311-4.74 1.31-4.742a1.358 1.358 0 0 0-.481-1.472L3.138 8.844c.941-.013 4.91-.252 4.91-.252a1.375 1.375 0 0 0 1.262-.91s1.26-3.144 1.704-4.388c.395 1.136 1.676 4.388 1.676 4.388zM11 0c-.692 0-1.972.343-2.79 2.64a3.923 3.923 0 0 1-.13.315 1.783 1.783 0 0 0-.048.118l-1 2.812-2.74.07c-.07.002-.14.009-.21.021-.22.04-.412.062-.585.066C1.283 6.098.46 6.983.159 7.716c-.222.542-.405 1.646.865 2.943.047.047.097.09.15.13l3.405 2.593-.908 3.041c-.011.035-.019.07-.027.107-.026.12-.048.21-.07.286-.427 1.426-.35 2.54.23 3.312.423.562 1.067.872 1.81.872h.002c.494 0 1.031-.14 1.596-.414.06-.03.12-.063.176-.102L11 18.016l3.612 2.468c.056.039.115.073.176.102.565.274 1.102.413 1.596.413.745 0 1.389-.31 1.811-.872.58-.772.658-1.886.231-3.312a4.19 4.19 0 0 1-.07-.284.94.94 0 0 0-.027-.108l-.908-3.04 3.406-2.593a1.5 1.5 0 0 0 .149-.13c1.27-1.299 1.087-2.401.865-2.943-.3-.733-1.124-1.618-3.338-1.675a3.751 3.751 0 0 1-.586-.065c-.07-.012-.139-.02-.21-.021l-2.74-.07-1-2.812a1.8 1.8 0 0 0-.048-.118 3.368 3.368 0 0 1-.129-.314C12.972.342 11.692 0 11 0z"/></g></g></svg>